<svg xmlns="http://www.w3.org/2000/svg" width="960" height="600" viewBox="0 0 960 600" role="img" aria-label="Case Study Load More preview">
  <defs>
    <linearGradient id="mint" x1="0" x2="1" y1="0" y2="1"><stop stop-color="#00fec3"/><stop offset="1" stop-color="#8ce6ff"/></linearGradient>
    <linearGradient id="ink" x1="0" x2="1" y1="0" y2="1"><stop stop-color="#111316"/><stop offset="1" stop-color="#28302c"/></linearGradient>
    <filter id="shadow" x="-20%" y="-20%" width="140%" height="140%"><feDropShadow dx="0" dy="18" stdDeviation="18" flood-color="#000" flood-opacity="0.16"/></filter>
  </defs>
  <rect width="960" height="600" fill="#f4f6ef"/>
  <rect x="40" y="40" width="880" height="520" rx="24" fill="#ffffff" filter="url(#shadow)"/>
  <text x="72" y="90" fill="#151515" font-family="Inter, Arial, sans-serif" font-size="28" font-weight="700">Case Study Load More</text>
  <text x="72" y="124" fill="#5d636d" font-family="Inter, Arial, sans-serif" font-size="16">cards component preview</text>
  <rect x="110" y="185" width="210" height="245" rx="16" fill="#f4f6ef" stroke="#d7dbd0"/><rect x="130" y="205" width="170" height="105" rx="12" fill="#b7c9bf" /><rect x="130" y="335" width="135" height="14" rx="7" fill="#151515" /><rect x="130" y="365" width="155" height="12" rx="7" fill="#8a918c" /><rect x="360" y="185" width="210" height="245" rx="16" fill="#f4f6ef" stroke="#d7dbd0"/><rect x="380" y="205" width="170" height="105" rx="12" fill="#b7c9bf" /><rect x="380" y="335" width="135" height="14" rx="7" fill="#151515" /><rect x="380" y="365" width="155" height="12" rx="7" fill="#8a918c" /><rect x="610" y="185" width="210" height="245" rx="16" fill="#f4f6ef" stroke="#d7dbd0"/><rect x="630" y="205" width="170" height="105" rx="12" fill="#b7c9bf" /><rect x="630" y="335" width="135" height="14" rx="7" fill="#151515" /><rect x="630" y="365" width="155" height="12" rx="7" fill="#8a918c" />
</svg>